<?xml version="1.0" encoding="utf-8"?>
<!-- Generator: Adobe Illustrator 26.0.0, SVG Export Plug-In . SVG Version: 6.00 Build 0)  -->
<svg version="1.1" id="Layer_1" xmlns="http://www.w3.org/2000/svg" xmlns:xlink="http://www.w3.org/1999/xlink" x="0px" y="0px"
	 viewBox="0 0 404.5 79.7" style="enable-background:new 0 0 404.5 79.7;" xml:space="preserve">
<style type="text/css">
	.st0{fill:#30BDCA;}
	.st1{fill:none;}
	.st2{fill:url(#SVGID_1_);}
	.st3{fill:url(#SVGID_00000016760930190395500970000016738541089668870557_);}
	.st4{fill:url(#SVGID_00000127003271103851710230000011379964288793847207_);}
	.st5{fill:url(#SVGID_00000026128290895774540740000015548026549141463196_);}
	.st6{fill:url(#SVGID_00000008120717148340712010000013035307000707626921_);}
	.st7{fill:url(#SVGID_00000127729179553503319290000003643883432407862962_);}
	.st8{fill:url(#SVGID_00000170266193903493906320000003896966970370624924_);}
	.st9{fill:url(#SVGID_00000008109424156526178830000011795215371765436032_);}
</style>
<g>
	<g>
		<g>
			<path class="st0" d="M99.9,30.1h5v22.6h-5L89.2,38.3v14.3h-5V30.1h4.7l11,14.6V30.1L99.9,30.1z"/>
			<path class="st0" d="M126.9,30.1v4.4h-11.3v4.7h10.2v4.4h-10.2v4.7h11.6v4.4h-16.8V30.1H126.9L126.9,30.1z"/>
			<path class="st0" d="M147.3,32c1.6,1.4,2.5,3.3,2.5,6.3c0,2.8-0.8,5-2.5,6.1s-4.1,1.9-7.4,1.9h-3v6.3h-5V30.1h8
				C143.2,30.1,145.7,30.9,147.3,32z M143.7,41.1c0.6-0.5,0.8-1.7,0.8-3s-0.3-2.2-1.1-2.8c-0.8-0.5-1.9-0.8-3.6-0.8h-2.8v7.7h3.3
				C141.8,42.2,143.2,41.6,143.7,41.1z"/>
			<path class="st0" d="M167.7,30.1h5v22.6h-5v-8.8h-9.1v8.8h-5V30.1h5v9.4h9.1C167.7,39.4,167.7,30.1,167.7,30.1z"/>
			<path class="st0" d="M196.9,37.5c0,3.6-1.4,6.1-4.4,7.2l5.8,8.3h-6.3l-5-7.2h-3.6v7.2h-5V30.4h8.5c3.6,0,6.1,0.5,7.4,1.6
				C196.1,33.1,196.9,35,196.9,37.5z M190.8,40.3c0.6-0.5,0.8-1.4,0.8-2.8c0-1.1-0.3-2.2-0.8-2.5s-1.9-0.5-3.3-0.5h-3.9v6.6h3.6
				C188.9,41.1,190.3,40.8,190.8,40.3z"/>
			<path class="st0" d="M220.9,49.6c-2.2,2.2-5.2,3.3-8.5,3.3s-6.1-1.1-8.5-3.3c-2.2-2.2-3.3-5-3.3-8.3c0-3.3,1.1-6.1,3.3-8.3
				c2.2-2.2,5.2-3.3,8.5-3.3s6.1,1.1,8.5,3.3c2.2,2.2,3.3,5,3.3,8.3C224.4,44.7,223.3,47.4,220.9,49.6z M219.2,41.4
				c0-1.9-0.6-3.9-1.9-5.2s-3-2.2-4.7-2.2s-3.6,0.8-4.7,2.2s-1.9,3-1.9,5.2s0.6,3.9,1.9,5.2s3,2.2,4.7,2.2s3.6-0.8,4.7-2.2
				S219.2,43.3,219.2,41.4z"/>
			<path class="st0" d="M228.6,30.1h5v22.6h-5V30.1z"/>
			<path class="st0" d="M255.3,30.1h5v22.6h-5l-10.7-14.3v14.3h-5V30.1h4.7l11,14.6C255.3,44.7,255.3,30.1,255.3,30.1z"/>
			<path class="st0" d="M281.7,30.1h5v22.6h-5L271,38.3v14.3h-5V30.1h4.7l11,14.6V30.1L281.7,30.1z"/>
			<path class="st0" d="M311.5,49.6c-2.2,2.2-5.2,3.3-8.5,3.3s-6.1-1.1-8.5-3.3c-2.2-2.2-3.3-5-3.3-8.3c0-3.3,1.1-6.1,3.3-8.3
				s5.2-3.3,8.5-3.3s6.1,1.1,8.5,3.3c2.2,2.2,3.3,5,3.3,8.3C314.8,44.7,313.7,47.4,311.5,49.6z M309.8,41.4c0-1.9-0.5-3.9-1.9-5.2
				s-3-2.2-4.7-2.2s-3.6,0.8-4.7,2.2s-1.9,3-1.9,5.2s0.5,3.9,1.9,5.2s3,2.2,4.7,2.2s3.6-0.8,4.7-2.2S309.8,43.3,309.8,41.4z"/>
			<path class="st0" d="M327.2,44.7l5.8-14.3h5.5l-9.1,22.6H325l-9.1-22.6h5.5L327.2,44.7z"/>
			<path class="st0" d="M355.8,52.9l-2.2-5h-9.4l-2.2,5h-5.5l9.9-22.6h5l9.9,22.6H355.8z M348.9,37l-2.8,6.6h5.8L348.9,37z"/>
			<path class="st0" d="M371.8,34.5v18.2h-5V34.5h-6.3v-4.4h17.9v4.4H371.8z"/>
			<path class="st0" d="M398.2,30.1v4.4h-11.3v4.7h10.2v4.4h-10.2v4.7h11.6v4.4h-16.8V30.1H398.2L398.2,30.1z"/>
		</g>
	</g>
	<g>
		<ellipse class="st1" cx="51.9" cy="40" rx="3.1" ry="3.4"/>
		<ellipse class="st1" cx="45.4" cy="53.1" rx="4.1" ry="3.6"/>
		<ellipse transform="matrix(0.16 -0.9871 0.9871 0.16 10.7831 67.0721)" class="st1" cx="44.8" cy="27.2" rx="3.2" ry="3.8"/>
		<linearGradient id="SVGID_1_" gradientUnits="userSpaceOnUse" x1="39.6124" y1="4.0945" x2="39.6124" y2="75.8855">
			<stop  offset="0" style="stop-color:#00E8BF"/>
			<stop  offset="0.2137" style="stop-color:#1AD1C5"/>
			<stop  offset="0.4109" style="stop-color:#2AC2C9"/>
			<stop  offset="0.5614" style="stop-color:#30BDCA"/>
			<stop  offset="0.6511" style="stop-color:#32B5C9"/>
			<stop  offset="0.7876" style="stop-color:#39A0C8"/>
			<stop  offset="0.953" style="stop-color:#437EC5"/>
			<stop  offset="1" style="stop-color:#4673C4"/>
		</linearGradient>
		<path class="st2" d="M65.8,15.4c-6.6-7-15.5-11-25-11.3c-0.4,0-0.8,0-1.1,0c-9.2,0-17.9,3.5-24.6,9.7c-7,6.6-11,15.5-11.3,25
			C3.5,45.3,5,51.6,8.1,57.2c2.8,5.1,6.8,9.5,11.6,12.7c0.2,0.2,0.5,0.3,0.8,0.3c0.5,0,1-0.3,1.3-0.7c0.5-0.7,0.3-1.7-0.5-2.2
			C12,61,6.5,50.2,6.8,39c0.3-8.8,3.9-16.9,10.3-22.9c6.1-5.7,14.1-8.9,22.5-8.9c0.3,0,0.7,0,1,0c8.8,0.3,16.9,3.9,22.9,10.3
			c6,6.4,9.2,14.7,8.9,23.5c-0.5,17.5-15.2,31.8-32.8,31.8c-0.3,0-0.7,0-1,0c-2.5-0.1-4.9-0.4-7.3-1c-0.1,0-0.2,0-0.4,0
			c-0.6,0-1.2,0.4-1.4,1l0,0.1c-0.1,0.4-0.1,0.8,0.1,1.2c0.2,0.4,0.5,0.6,1,0.7c2.6,0.7,5.2,1,7.9,1.1c0.4,0,0.7,0,1.1,0
			c0.1,0,0.2,0,0.3,0c9.3-0.1,18.1-3.7,24.7-10.2c6.7-6.5,10.5-15.3,10.8-24.6C75.8,31.5,72.3,22.4,65.8,15.4z"/>
		
			<linearGradient id="SVGID_00000042711381079585360960000014237619858591605123_" gradientUnits="userSpaceOnUse" x1="21.4237" y1="39.2219" x2="21.4237" y2="42.9902">
			<stop  offset="0" style="stop-color:#00E8BF"/>
			<stop  offset="0" style="stop-color:#2BC2C9"/>
			<stop  offset="1" style="stop-color:#30BDCA"/>
		</linearGradient>
		<circle style="fill:url(#SVGID_00000042711381079585360960000014237619858591605123_);" cx="21.4" cy="41.1" r="1.9"/>
		
			<linearGradient id="SVGID_00000168109793110512227240000009038754974550167224_" gradientUnits="userSpaceOnUse" x1="20.1915" y1="32.5011" x2="20.1915" y2="36.9825">
			<stop  offset="0" style="stop-color:#00E8BF"/>
			<stop  offset="0" style="stop-color:#2BC2C9"/>
			<stop  offset="1" style="stop-color:#30BDCA"/>
		</linearGradient>
		<circle style="fill:url(#SVGID_00000168109793110512227240000009038754974550167224_);" cx="20.2" cy="34.7" r="2.2"/>
		
			<linearGradient id="SVGID_00000002367170318583107220000013710851412606721437_" gradientUnits="userSpaceOnUse" x1="15.8384" y1="37.7684" x2="15.8384" y2="40.6754">
			<stop  offset="0" style="stop-color:#00E8BF"/>
			<stop  offset="0" style="stop-color:#2BC2C9"/>
			<stop  offset="1" style="stop-color:#30BDCA"/>
		</linearGradient>
		<circle style="fill:url(#SVGID_00000002367170318583107220000013710851412606721437_);" cx="15.8" cy="39.2" r="1.5"/>
		
			<linearGradient id="SVGID_00000004536046326227130620000013707164835328605334_" gradientUnits="userSpaceOnUse" x1="47.5301" y1="14.3975" x2="47.5301" y2="67.3907">
			<stop  offset="3.055727e-03" style="stop-color:#00E8BF"/>
			<stop  offset="2.954346e-02" style="stop-color:#0BDEC1"/>
			<stop  offset="8.661726e-02" style="stop-color:#1CCFC5"/>
			<stop  offset="0.1577" style="stop-color:#27C5C8"/>
			<stop  offset="0.2574" style="stop-color:#2EBFCA"/>
			<stop  offset="0.5341" style="stop-color:#30BDCA"/>
			<stop  offset="0.7567" style="stop-color:#31BBCA"/>
			<stop  offset="0.8369" style="stop-color:#33B4C9"/>
			<stop  offset="0.8941" style="stop-color:#36A9C8"/>
			<stop  offset="0.9402" style="stop-color:#3B98C7"/>
			<stop  offset="0.9793" style="stop-color:#4282C5"/>
			<stop  offset="1" style="stop-color:#4673C4"/>
		</linearGradient>
		<path style="fill:url(#SVGID_00000004536046326227130620000013707164835328605334_);" d="M55.5,19.4c-2.7-2.8-6-4.2-9.9-4.3
			c-0.1,0-0.1,0-0.2,0c-3.8,0-7.4,1.5-10,4.3c-2.6,2.8-3.9,6.4-3.7,10.2c0,0.7,0.5,1.2,1.1,1.5c0.2,0.1,0.4,0.1,0.6,0.1
			c0.9,0,1.6-0.7,1.7-1.5l0.1-0.9l0,0c0.1-4.2,2.7-7.9,6.5-9.4c1.3-0.5,2.6-0.7,3.9-0.7c2.8,0,5.5,1.2,7.5,3.2
			c9.8,10.1,9.9,25.5,0.3,35.8c-0.4,0.4-0.7,0.7-1.1,1.1c-2,1.9-4.5,2.9-7.2,2.9c-1.5,0-2.9-0.3-4.3-0.9C37,59,34.6,55.2,34.7,51
			l0,0l0-0.9c0-0.9-0.8-1.6-1.7-1.6c-0.2,0-0.4,0-0.5,0.1c-0.6,0.2-1.1,0.8-1.1,1.4c-0.4,3.8,0.8,7.5,3.3,10.4
			c2.5,2.9,6.1,4.6,10,4.7c0.2,0,0.4,0,0.5,0c3.6,0,6.8-1.3,9.5-3.8c0,0,0,0,0.1-0.1l0,0l0.4-0.4l0.2-0.2c0.1-0.1,0.3-0.3,0.4-0.4
			l0.4-0.4l0,0c4.5-4.9,7.1-10.7,7.6-17.2C64.5,33.6,61.7,25.8,55.5,19.4z"/>
		
			<linearGradient id="SVGID_00000010270607442112538910000010905948031022911146_" gradientUnits="userSpaceOnUse" x1="51.9205" y1="34.3459" x2="51.9205" y2="45.7838">
			<stop  offset="0" style="stop-color:#00E8BF"/>
			<stop  offset="0" style="stop-color:#30BDCA"/>
			<stop  offset="0.6173" style="stop-color:#30BDCA"/>
		</linearGradient>
		<path style="fill:url(#SVGID_00000010270607442112538910000010905948031022911146_);" d="M57.3,40.1c0-3.2-2.4-5.7-5.4-5.7
			c-3,0-5.4,2.6-5.4,5.7c0,3.2,2.4,5.7,5.4,5.7C54.9,45.8,57.3,43.2,57.3,40.1z M51.9,43.4c-1.7,0-3.1-1.5-3.1-3.4
			c0-1.9,1.4-3.4,3.1-3.4c1.7,0,3.1,1.5,3.1,3.4C55,41.9,53.6,43.4,51.9,43.4z"/>
		
			<linearGradient id="SVGID_00000129198801194867686700000000380267895906953119_" gradientUnits="userSpaceOnUse" x1="37.3307" y1="12.6381" x2="37.3307" y2="30.0425">
			<stop  offset="0" style="stop-color:#00E8BF"/>
			<stop  offset="8.068329e-02" style="stop-color:#07E2C1"/>
			<stop  offset="0.4121" style="stop-color:#1DCEC6"/>
			<stop  offset="0.7255" style="stop-color:#2BC1C9"/>
			<stop  offset="1" style="stop-color:#30BDCA"/>
		</linearGradient>
		<path style="fill:url(#SVGID_00000129198801194867686700000000380267895906953119_);" d="M26,35.8c-0.4,0.2-1.3,0.8-1.7,1.2
			c-0.5,0.6-0.6,1.5-0.1,2c0.3,0.3,0.6,0.5,1,0.5c0.3,0,0.5-0.1,0.8-0.3c2.1-1.8,4.5-2.2,6.9-2.6l3.1-0.1l0.1,0c0.1,0,0.4,0,0.5,0
			c0.2,0,0.3,0,0.4,0c0.6,0.1,1.2,0.1,1.8,0.2c0.7,0.1,1.3,0.1,2,0.2c0.1,0,0.2,0,0.4,0c2.3,0,4.2-1.9,4.5-4.6l0,0
			c2.9-0.4,5.1-2.5,5.1-5c0-2.8-2.7-5.1-6-5.1c-3.3,0-6,2.3-6,5.1c0,2.3,1.8,4.3,4.3,4.9c-0.2,1.6-0.7,1.8-1.8,1.8
			c-0.2,0-0.5,0-0.8,0c-1.6-0.2-3.4-0.3-5.2-0.3c-2.1,0-3.9,0.2-5.7,0.7C28.2,34.7,27.4,35.1,26,35.8z M41,26.6
			c0.3-1.7,2.2-2.8,4.3-2.5c2.1,0.3,3.6,2,3.3,3.7c-0.3,1.7-2.2,2.8-4.3,2.5C42.2,30,40.7,28.3,41,26.6z"/>
		
			<linearGradient id="SVGID_00000098943146485642960190000015072158841313349262_" gradientUnits="userSpaceOnUse" x1="37.9371" y1="40.666" x2="37.9371" y2="73.2042">
			<stop  offset="0" style="stop-color:#30BDCA"/>
			<stop  offset="0.2353" style="stop-color:#31B9CA"/>
			<stop  offset="0.4665" style="stop-color:#35ADC9"/>
			<stop  offset="0.6961" style="stop-color:#3B9AC7"/>
			<stop  offset="0.9235" style="stop-color:#437EC5"/>
			<stop  offset="1" style="stop-color:#4673C4"/>
		</linearGradient>
		<path style="fill:url(#SVGID_00000098943146485642960190000015072158841313349262_);" d="M41,49c-1.2,1.1-2,2.6-2,4.2
			c0,3.3,2.9,5.9,6.5,5.9c3.6,0,6.5-2.6,6.5-5.9c0-3.3-2.9-5.9-6.5-5.9c-0.5,0-1,0.1-1.5,0.2c-0.5-2.1-2.5-6.8-10.5-6.8
			c-2.9,0-5.3,0.9-7,2.8c-2.8,3.1-2.6,7.6-2.6,8.2v20.2c0,0.8,0.6,1.4,1.4,1.4h0.3c0.8,0,1.4-0.6,1.4-1.4l0-20.2l0-0.1
			c0,0-0.2-3.7,1.8-5.9c1.1-1.2,2.6-1.8,4.7-1.8C39.4,43.8,40.7,47.6,41,49z M45.4,49.5c2.3,0,4.1,1.6,4.1,3.6c0,2-1.9,3.6-4.1,3.6
			c-2.3,0-4.1-1.6-4.1-3.6C41.3,51.1,43.2,49.5,45.4,49.5z"/>
	</g>
</g>
</svg>
