<svg id="Layer_1" data-name="Layer 1" xmlns="http://www.w3.org/2000/svg" xmlns:xlink="http://www.w3.org/1999/xlink" viewBox="0 0 16 16"><defs><style>.cls-1{fill:none;}.cls-2{fill:url(#linear-gradient);}.cls-3{fill:url(#linear-gradient-2);}.cls-4{fill:url(#linear-gradient-3);}.cls-5{fill:url(#linear-gradient-4);}.cls-6{fill:url(#linear-gradient-5);}.cls-7{fill:url(#linear-gradient-6);}.cls-8{fill:url(#linear-gradient-7);}.cls-9{fill:url(#linear-gradient-8);}</style><linearGradient id="linear-gradient" x1="8" y1="0.14" x2="8" y2="15.6" gradientUnits="userSpaceOnUse"><stop offset="0" stop-color="#00e8bf"/><stop offset="0.21" stop-color="#1ad1c5"/><stop offset="0.41" stop-color="#2ac2c9"/><stop offset="0.56" stop-color="#30bdca"/><stop offset="0.65" stop-color="#32b5c9"/><stop offset="0.79" stop-color="#39a0c8"/><stop offset="0.95" stop-color="#437ec5"/><stop offset="1" stop-color="#4673c4"/></linearGradient><linearGradient id="linear-gradient-2" x1="4.08" y1="7.7" x2="4.08" y2="8.51" gradientUnits="userSpaceOnUse"><stop offset="0" stop-color="#00e8bf"/><stop offset="0" stop-color="#2bc2c9"/><stop offset="1" stop-color="#30bdca"/></linearGradient><linearGradient id="linear-gradient-3" x1="3.82" y1="6.26" x2="3.82" y2="7.22" xlink:href="#linear-gradient-2"/><linearGradient id="linear-gradient-4" x1="2.88" y1="7.39" x2="2.88" y2="8.02" xlink:href="#linear-gradient-2"/><linearGradient id="linear-gradient-5" x1="9.7" y1="2.36" x2="9.7" y2="13.77" gradientUnits="userSpaceOnUse"><stop offset="0" stop-color="#00e8bf"/><stop offset="0.03" stop-color="#0bdec1"/><stop offset="0.09" stop-color="#1ccfc5"/><stop offset="0.16" stop-color="#27c5c8"/><stop offset="0.26" stop-color="#2ebfca"/><stop offset="0.53" stop-color="#30bdca"/><stop offset="0.76" stop-color="#31bbca"/><stop offset="0.84" stop-color="#33b4c9"/><stop offset="0.89" stop-color="#36a9c8"/><stop offset="0.94" stop-color="#3b98c7"/><stop offset="0.98" stop-color="#4282c5"/><stop offset="1" stop-color="#4673c4"/></linearGradient><linearGradient id="linear-gradient-6" x1="10.65" y1="6.65" x2="10.65" y2="9.12" gradientUnits="userSpaceOnUse"><stop offset="0" stop-color="#00e8bf"/><stop offset="0" stop-color="#30bdca"/><stop offset="0.62" stop-color="#30bdca"/></linearGradient><linearGradient id="linear-gradient-7" x1="7.51" y1="1.98" x2="7.51" y2="5.73" gradientUnits="userSpaceOnUse"><stop offset="0" stop-color="#00e8bf"/><stop offset="0.08" stop-color="#07e2c1"/><stop offset="0.41" stop-color="#1dcec6"/><stop offset="0.73" stop-color="#2bc1c9"/><stop offset="1" stop-color="#30bdca"/></linearGradient><linearGradient id="linear-gradient-8" x1="7.64" y1="8.01" x2="7.64" y2="15.02" gradientUnits="userSpaceOnUse"><stop offset="0" stop-color="#30bdca"/><stop offset="0.24" stop-color="#31b9ca"/><stop offset="0.47" stop-color="#35adc9"/><stop offset="0.7" stop-color="#3b9ac7"/><stop offset="0.92" stop-color="#437ec5"/><stop offset="1" stop-color="#4673c4"/></linearGradient></defs><ellipse class="cls-1" cx="10.65" cy="7.87" rx="0.66" ry="0.74"/><ellipse class="cls-1" cx="9.26" cy="10.69" rx="0.89" ry="0.78"/><ellipse class="cls-1" cx="9.12" cy="5.11" rx="0.68" ry="0.83" transform="translate(2.61 13.3) rotate(-80.8)"/><path class="cls-2" d="M13.63,2.57A7.71,7.71,0,0,0,8.24.14H8a7.63,7.63,0,0,0-5.28,2.1A7.68,7.68,0,0,0,.27,7.63a7.8,7.8,0,0,0,.94,3.94,7.88,7.88,0,0,0,2.5,2.73.34.34,0,0,0,.17,0,.33.33,0,0,0,.28-.15.35.35,0,0,0-.1-.47A7.09,7.09,0,0,1,.94,7.65,7.07,7.07,0,0,1,8,.8h.23a7.05,7.05,0,0,1,6.84,7.28A7.11,7.11,0,0,1,8,14.93H7.78a6.92,6.92,0,0,1-1.57-.23H6.13a.31.31,0,0,0-.29.22v0a.39.39,0,0,0,0,.26.32.32,0,0,0,.21.15,6.89,6.89,0,0,0,1.69.24h.32a7.73,7.73,0,0,0,5.55-13Z"/><circle class="cls-3" cx="4.08" cy="8.11" r="0.41"/><circle class="cls-4" cx="3.82" cy="6.74" r="0.48"/><circle class="cls-5" cx="2.88" cy="7.7" r="0.31"/><path class="cls-6" d="M11.41,3.43a2.88,2.88,0,0,0-2.12-.92h0a2.94,2.94,0,0,0-2.16.93,2.91,2.91,0,0,0-.81,2.19A.37.37,0,0,0,6.52,6a.27.27,0,0,0,.13,0A.36.36,0,0,0,7,5.64l0-.19H7a2.24,2.24,0,0,1,1.4-2,2.39,2.39,0,0,1,.83-.15A2.24,2.24,0,0,1,10.88,4,5.53,5.53,0,0,1,11,11.67l-.23.23a2.24,2.24,0,0,1-1.55.63,2.36,2.36,0,0,1-.93-.2,2.23,2.23,0,0,1-1.3-2.09h0V10a.37.37,0,0,0-.36-.35l-.12,0A.38.38,0,0,0,6.2,10a3,3,0,0,0,2.86,3.26h.12a2.88,2.88,0,0,0,2-.81l0,0h0l.09-.08,0,0,.09-.09.09-.1h0A6,6,0,0,0,13.2,8.42,6.15,6.15,0,0,0,11.41,3.43Z"/><path class="cls-7" d="M11.81,7.88a1.16,1.16,0,1,0-1.16,1.24A1.2,1.2,0,0,0,11.81,7.88Zm-1.16.73a.74.74,0,1,1,.67-.74A.71.71,0,0,1,10.65,8.61Z"/><path class="cls-8" d="M5.08,7a2,2,0,0,0-.37.25.35.35,0,0,0,0,.44.28.28,0,0,0,.21.11.23.23,0,0,0,.16-.07,2.63,2.63,0,0,1,1.49-.55l.67,0h.21l.39,0,.43,0h.08a1,1,0,0,0,1-1h0a1.18,1.18,0,0,0,1.1-1.09A1.21,1.21,0,0,0,9.11,4a1.21,1.21,0,0,0-1.29,1.1,1.13,1.13,0,0,0,.92,1c-.05.34-.16.4-.38.4H8.19a9.82,9.82,0,0,0-1.11-.08,4.24,4.24,0,0,0-1.22.16A2.82,2.82,0,0,0,5.08,7ZM8.3,5a.77.77,0,0,1,.93-.54.77.77,0,0,1,.7.81A.75.75,0,0,1,9,5.78.76.76,0,0,1,8.3,5Z"/><path class="cls-9" d="M8.3,9.81a1.18,1.18,0,0,0-.43.91A1.33,1.33,0,0,0,9.26,12a1.33,1.33,0,0,0,1.39-1.27A1.33,1.33,0,0,0,9.26,9.45a1.12,1.12,0,0,0-.32,0A2,2,0,0,0,6.68,8a1.94,1.94,0,0,0-1.5.61,2.6,2.6,0,0,0-.55,1.75v4.35a.3.3,0,0,0,.3.3H5a.3.3,0,0,0,.3-.31V10.34a2,2,0,0,1,.38-1.27,1.31,1.31,0,0,1,1-.38A1.45,1.45,0,0,1,8.3,9.81Zm1,.1a.84.84,0,0,1,.89.78.84.84,0,0,1-.89.78.85.85,0,0,1-.9-.78A.85.85,0,0,1,9.26,9.91Z"/></svg>